<svg width="50" height="51" viewBox="0 0 50 51" fill="none" xmlns="http://www.w3.org/2000/svg">
<path d="M25 51.001C11.1926 51.001 0 39.5845 0 25.501C0 11.4174 11.1926 0.000976562 25 0.000976562C38.8074 0.000976562 50 11.4174 50 25.501C50 39.5845 38.8074 51.001 25 51.001Z" fill="#345EA9"/>
<path d="M21.1911 40.915H27.2767V25.3703H31.522L31.9752 20.1655H27.2767C27.2767 20.1655 27.2767 18.2222 27.2767 17.2012C27.2767 15.9746 27.5179 15.489 28.6814 15.489C29.6176 15.489 31.9752 15.489 31.9752 15.489V10.0879C31.9752 10.0879 28.5029 10.0879 27.7612 10.0879C23.2329 10.0879 21.1911 12.1222 21.1911 16.0159C21.1911 19.4075 21.1911 20.1655 21.1911 20.1655H18.0249V25.435H21.1911V40.915Z" fill="white"/>
</svg>
