<svg width="50" height="51" viewBox="0 0 50 51" fill="none" xmlns="http://www.w3.org/2000/svg">
<path d="M25 51.001C11.1926 51.001 0 39.5845 0 25.501C0 11.4174 11.1926 0.000976562 25 0.000976562C38.8074 0.000976562 50 11.4174 50 25.501C50 39.5845 38.8074 51.001 25 51.001Z" fill="url(#paint0_radial)"/>
<path d="M25 11.5192C21.2775 11.5192 20.8105 11.5355 19.3486 11.6038C17.8896 11.6713 16.8928 11.9081 16.0214 12.2537C15.1194 12.6106 14.3553 13.0884 13.5934 13.8663C12.8308 14.6435 12.3623 15.4235 12.0124 16.3428C11.6736 17.2323 11.4415 18.2484 11.3752 19.7366C11.3083 21.2277 11.2923 21.7041 11.2923 25.501C11.2923 29.2987 11.3083 29.7744 11.3752 31.2661C11.4415 32.7543 11.6736 33.7704 12.0124 34.6599C12.3623 35.5793 12.8308 36.3593 13.5934 37.1365C14.3553 37.9136 15.1194 38.3922 16.0214 38.7491C16.8928 39.0947 17.8896 39.3307 19.3486 39.399C20.8105 39.4673 21.2775 39.4829 25 39.4829C28.7232 39.4829 29.1896 39.4673 30.6521 39.399C32.1111 39.3307 33.1073 39.0947 33.9793 38.7491C34.8807 38.3922 35.6447 37.9136 36.4073 37.1365C37.1692 36.3593 37.6377 35.5793 37.9883 34.6599C38.3271 33.7704 38.5586 32.7543 38.6255 31.2661C38.6917 29.7744 38.7077 29.2987 38.7077 25.501C38.7077 21.7041 38.6917 21.2277 38.6255 19.7366C38.5586 18.2484 38.3271 17.2323 37.9883 16.3428C37.6377 15.4235 37.1692 14.6435 36.4073 13.8663C35.6447 13.0884 34.8807 12.6106 33.9793 12.2537C33.1073 11.9081 32.1111 11.6713 30.6521 11.6038C29.1896 11.5355 28.7232 11.5192 25 11.5192ZM25 14.0384C28.6605 14.0384 29.0941 14.0526 30.5391 14.1201C31.8755 14.182 32.6012 14.4102 33.0849 14.6015C33.7242 14.8553 34.1808 15.1583 34.6604 15.6475C35.1407 16.1366 35.437 16.6024 35.6858 17.2551C35.874 17.7479 36.0971 18.488 36.1578 19.8518C36.224 21.3258 36.2379 21.7681 36.2379 25.501C36.2379 29.2347 36.224 29.677 36.1578 31.1509C36.0971 32.5147 35.874 33.2549 35.6858 33.7469C35.437 34.4004 35.1407 34.8654 34.6604 35.3553C34.1808 35.8438 33.7242 36.1474 33.0849 36.4005C32.6012 36.5925 31.8755 36.8201 30.5391 36.8826C29.0941 36.9495 28.6605 36.9637 25 36.9637C21.3396 36.9637 20.9067 36.9495 19.4609 36.8826C18.1245 36.8201 17.3989 36.5925 16.9158 36.4005C16.2758 36.1474 15.8192 35.8438 15.3396 35.3553C14.86 34.8654 14.5631 34.4004 14.3142 33.7469C14.1267 33.2549 13.9029 32.5147 13.8423 31.1509C13.776 29.677 13.7628 29.2347 13.7628 25.501C13.7628 21.7681 13.776 21.3258 13.8423 19.8518C13.9029 18.488 14.1267 17.7479 14.3142 17.2551C14.5631 16.6024 14.86 16.1366 15.3396 15.6475C15.8192 15.1583 16.2758 14.8553 16.9158 14.6015C17.3989 14.4102 18.1245 14.182 19.4609 14.1201C20.9067 14.0526 21.3403 14.0384 25 14.0384Z" fill="white"/>
<path d="M25 30.1619C22.4765 30.1619 20.4312 28.075 20.4312 25.5011C20.4312 22.9271 22.4765 20.8409 25 20.8409C27.5235 20.8409 29.5695 22.9271 29.5695 25.5011C29.5695 28.075 27.5235 30.1619 25 30.1619ZM25 18.3217C21.113 18.3217 17.9607 21.5356 17.9607 25.5011C17.9607 29.4665 21.113 32.6812 25 32.6812C28.8877 32.6812 32.0393 29.4665 32.0393 25.5011C32.0393 21.5356 28.8877 18.3217 25 18.3217Z" fill="white"/>
<defs>
<radialGradient id="paint0_radial" cx="0" cy="0" r="1" gradientUnits="userSpaceOnUse" gradientTransform="translate(-1.25129 51.1709) rotate(-44.4438) scale(93.3387 93.3929)">
<stop stop-color="#ECEF39"/>
<stop offset="0.241206" stop-color="#F4713C"/>
<stop offset="0.488797" stop-color="#ED2981"/>
<stop offset="1" stop-color="#3252AC"/>
</radialGradient>
</defs>
</svg>
