<svg width="50" height="50" viewBox="0 0 50 50" fill="none" xmlns="http://www.w3.org/2000/svg">
<path d="M24.9996 49.9993C11.1924 49.9993 0 38.8068 0 24.9996C0 11.1924 11.1924 -3.43323e-05 24.9996 -3.43323e-05C38.8069 -3.43323e-05 50 11.1924 50 24.9996C50 38.8068 38.8069 49.9993 24.9996 49.9993Z" fill="#1682C5"/>
<path d="M13.6636 36.1418H18.8374V19.4264H13.6636V36.1418Z" fill="white"/>
<path d="M16.2261 17.2383C17.9158 17.2383 19.2856 15.856 19.2856 14.153C19.2856 12.45 17.9158 11.0691 16.2261 11.0691C14.5356 11.0691 13.1666 12.45 13.1666 14.153C13.1666 15.856 14.5356 17.2383 16.2261 17.2383Z" fill="white"/>
<path d="M27.1083 27.3676C27.1083 25.0177 28.1902 23.6173 30.2612 23.6173C32.1636 23.6173 33.0775 24.9612 33.0775 27.3676C33.0775 29.7746 33.0775 36.1418 33.0775 36.1418H38.2276C38.2276 36.1418 38.2276 30.0361 38.2276 25.5587C38.2276 21.0813 35.6895 18.9161 32.1455 18.9161C28.6001 18.9161 27.1083 21.678 27.1083 21.678V19.4264H22.1451V36.1418H27.1083C27.1083 36.1418 27.1083 29.9426 27.1083 27.3676Z" fill="white"/>
</svg>
