<svg width="50" height="50" viewBox="0 0 50 50" fill="none" xmlns="http://www.w3.org/2000/svg">
<g clip-path="url(#clip0_1107_157)">
<path d="M24.9997 50.001C11.1931 50.001 0 38.8085 0 25.0013C0 11.1941 11.1931 0.000976562 24.9997 0.000976562C38.8069 0.000976562 50 11.1941 50 25.0013C50 38.8085 38.8069 50.001 24.9997 50.001Z" fill="#0F6AF3"/>
<path fill-rule="evenodd" clip-rule="evenodd" d="M37.5853 31.8589C36.8882 31.4892 33.5073 29.6971 32.876 29.4549C32.2445 29.1983 31.7835 29.0852 31.3237 29.8247C30.8625 30.5641 29.5343 32.2286 29.1401 32.7132C28.7327 33.2105 28.337 33.2671 27.6402 32.8974C26.9563 32.5277 24.7334 31.7599 22.1015 29.2268C20.0634 27.2789 18.6682 24.8607 18.274 24.1195C17.8798 23.3801 18.2348 22.9822 18.5766 22.6122C18.8924 22.271 19.2603 21.7437 19.6153 21.3174C19.7084 21.1885 19.7871 21.0752 19.8655 20.9619C20.0241 20.6912 20.142 20.4348 20.2992 20.0791C20.5363 19.5821 20.4184 19.1555 20.2483 18.7858C20.0765 18.4146 18.6945 14.7739 18.1168 13.2933C17.5511 11.8142 16.9719 12.0709 16.5645 12.0709C16.1688 12.0709 15.7091 12 15.2481 12C14.7883 12 14.0391 12.184 13.4075 12.9236C12.7762 13.663 11 15.4567 11 19.0973C11 19.9518 11.1455 20.8045 11.355 21.6164C12.0518 24.2204 13.5518 26.368 13.8149 26.7377C14.157 27.2223 18.5766 34.9317 25.5743 37.9054C32.5865 40.8508 32.5865 39.869 33.8492 39.7415C35.112 39.6266 37.9271 37.962 38.4915 36.2266C39.0721 34.5053 39.0721 33.0265 38.9003 32.7132C38.7287 32.4144 38.269 32.2286 37.5853 31.8589Z" fill="white"/>
</g>
<defs>
<clipPath id="clip0_1107_157">
<rect width="50" height="50" fill="white"/>
</clipPath>
</defs>
</svg>
