<?xml version="1.0" encoding="iso-8859-1"?>
<!-- Generator: Adobe Illustrator 19.0.0, SVG Export Plug-In . SVG Version: 6.00 Build 0)  -->
<svg version="1.1" id="Layer_1" xmlns="http://www.w3.org/2000/svg" xmlns:xlink="http://www.w3.org/1999/xlink" x="0px" y="0px"
	 viewBox="0 0 512 512" style="enable-background:new 0 0 512 512;" xml:space="preserve">
<path style="fill:#74C1F2;" d="M461.732,243.738c53.425-53.425,53.425-140.044,0-193.47l0,0c-53.425-53.425-140.044-53.425-193.47,0
	L159.265,159.265l193.47,193.47L461.732,243.738z"/>
<path style="fill:#EDB2D8;" d="M159.265,159.265L50.268,268.263c-53.425,53.425-53.425,140.044,0,193.47l0,0
	c53.425,53.425,140.044,53.425,193.47,0l108.997-108.997L159.265,159.265z"/>
<path d="M468.944,43.056C441.179,15.291,404.263,0,364.997,0S288.816,15.291,261.05,43.056L152.053,152.053l0,0l0,0L43.056,261.051
	C15.291,288.816,0,325.731,0,364.997s15.292,76.182,43.056,103.947C70.821,496.709,107.737,512,147.003,512
	s76.181-15.291,103.947-43.056l108.997-108.997l0,0l0,0L468.944,250.95C496.709,223.184,512,186.269,512,147.003
	S496.708,70.821,468.944,43.056z M236.526,454.52c-49.361,49.363-129.682,49.363-179.045,0c-49.363-49.362-49.363-129.682,0-179.045
	l101.785-101.786l179.046,179.046L236.526,454.52z M454.52,236.526L352.735,338.312L173.688,159.265L275.474,57.48
	c49.363-49.363,129.683-49.362,179.045,0C503.883,106.843,503.883,187.163,454.52,236.526z"/>
<path d="M455.977,210.031c-3.983-3.983-10.441-3.983-14.425,0l-6.12,6.12c-3.983,3.983-3.983,10.441,0,14.425
	c1.992,1.992,4.602,2.987,7.212,2.987c2.61,0,5.221-0.995,7.212-2.987l6.12-6.12C459.96,220.472,459.96,214.014,455.977,210.031z"/>
<path d="M411.975,239.609l-65.275,65.275c-3.983,3.983-3.983,10.441,0,14.425c1.992,1.992,4.602,2.987,7.212,2.987
	c2.61,0,5.221-0.995,7.212-2.987l65.275-65.275c3.983-3.983,3.983-10.441,0-14.425C422.416,235.625,415.958,235.625,411.975,239.609
	z"/>
<g>
</g>
<g>
</g>
<g>
</g>
<g>
</g>
<g>
</g>
<g>
</g>
<g>
</g>
<g>
</g>
<g>
</g>
<g>
</g>
<g>
</g>
<g>
</g>
<g>
</g>
<g>
</g>
<g>
</g>
</svg>
