<svg width="50" height="50" viewBox="0 0 50 50" fill="none" xmlns="http://www.w3.org/2000/svg">
<path d="M24.9997 50.001C11.1931 50.001 0 38.8085 0 25.0013C0 11.1941 11.1931 0.000976562 24.9997 0.000976562C38.8069 0.000976562 50 11.1941 50 25.0013C50 38.8085 38.8069 50.001 24.9997 50.001Z" fill="#33B657"/>
<path fill-rule="evenodd" clip-rule="evenodd" d="M25.2492 35.8803C22.9481 35.8803 20.8115 35.1993 19.0214 34.0212L14.6723 35.4077L16.0839 31.235C14.7288 29.3821 13.9285 27.1068 13.9285 24.6482C13.9285 24.2822 13.9473 23.9169 13.985 23.5579C14.5398 17.8725 19.3811 13.416 25.2492 13.416C31.1926 13.416 36.0778 17.9854 36.5316 23.7719C36.5567 24.0626 36.5692 24.3519 36.5692 24.6482C36.5692 30.8446 31.4888 35.8803 25.2492 35.8803ZM38.7058 24.308C38.5231 17.0848 32.5735 11.2857 25.2492 11.2857C18.0127 11.2857 12.1133 16.9523 11.7982 24.0626C11.7919 24.2578 11.7857 24.453 11.7857 24.6482C11.7857 27.1758 12.4918 29.5334 13.7145 31.55L11.2872 38.7168L18.744 36.3467C20.6728 37.4056 22.8917 38.0106 25.2492 38.0106C32.6871 38.0106 38.7121 32.0289 38.7121 24.6482C38.7121 24.5345 38.7121 24.4216 38.7058 24.308Z" fill="white"/>
<path fill-rule="evenodd" clip-rule="evenodd" d="M31.4199 27.3457C31.0859 27.1819 29.4659 26.3879 29.1634 26.2806C28.8608 26.1669 28.6399 26.1168 28.4196 26.4444C28.1986 26.772 27.5622 27.5095 27.3733 27.7242C27.1781 27.9445 26.9885 27.9696 26.6546 27.8058C26.3269 27.642 25.2618 27.3018 24.0007 26.1795C23.0241 25.3165 22.3556 24.2451 22.1667 23.9167C21.9778 23.5891 22.1479 23.4128 22.3117 23.2489C22.463 23.0977 22.6393 22.8641 22.8094 22.6752C22.854 22.6181 22.8917 22.5679 22.9293 22.5177C23.0053 22.3978 23.0618 22.2842 23.1371 22.1266C23.2507 21.9064 23.1942 21.7174 23.1127 21.5536C23.0304 21.3891 22.3682 19.7761 22.0914 19.1201C21.8203 18.4648 21.5428 18.5785 21.3476 18.5785C21.158 18.5785 20.9377 18.5471 20.7168 18.5471C20.4965 18.5471 20.1375 18.6286 19.8349 18.9563C19.5324 19.2839 18.6813 20.0786 18.6813 21.6916C18.6813 22.0702 18.751 22.448 18.8514 22.8077C19.1853 23.9614 19.904 24.9129 20.0301 25.0767C20.194 25.2914 22.3117 28.7071 25.6647 30.0246C29.0247 31.3296 29.0247 30.8946 29.6297 30.8381C30.2348 30.7872 31.5837 30.0497 31.8541 29.2808C32.1323 28.5182 32.1323 27.863 32.05 27.7242C31.9678 27.5918 31.7475 27.5095 31.4199 27.3457Z" fill="white"/>
</svg>
